<svg xmlns="http://www.w3.org/2000/svg" width="49" height="13" viewBox="0 0 49 13">
    <path fill="#B0B0B0" fill-rule="evenodd" d="M5.926 13h-.708V6.754H.772v-.708h5.154V13zm5.616-6.774c0 .856.109 1.688.327 2.496.218.808.537 1.576.957 2.304.064.124.08.219.048.285-.032.066-.078.119-.138.159l-.474.288c-.3-.46-.555-.916-.765-1.368-.21-.452-.38-.906-.51-1.362-.13-.456-.225-.915-.285-1.377-.06-.462-.09-.937-.09-1.425 0-.484.03-.958.09-1.422.06-.464.155-.923.285-1.377.13-.454.3-.907.51-1.359.21-.452.465-.91.765-1.374l.474.294c.06.04.106.093.138.159.032.066.016.159-.048.279-.42.728-.739 1.496-.957 2.304-.218.808-.327 1.64-.327 2.496zm3.426-4.824v1.74l-.096.93c-.02.128-.057.227-.111.297-.054.07-.141.105-.261.105-.108 0-.191-.035-.249-.105-.058-.07-.097-.169-.117-.297l-.096-.93v-1.74h.93zm4.656 3.042c-.912 0-1.752.552-2.532 1.668l.648.516c.636-.888 1.26-1.332 1.884-1.332.372 0 .804.12 1.284.372.36.204.744.432 1.14.672.696.384 1.32.576 1.872.576.852 0 1.668-.576 2.436-1.704l-.636-.528c-.648.924-1.248 1.392-1.8 1.392-.456 0-1.02-.204-1.692-.588-.396-.24-.78-.456-1.14-.66-.528-.264-1.02-.384-1.464-.384zm9.9-3.138c.132 0 .23.021.294.063.064.042.124.109.18.201l.894 1.452h-.612c-.084 0-.152-.013-.204-.039-.052-.026-.106-.069-.162-.129L28.51 1.306h1.014zm3.984 10.146c-.032-.028-.054-.054-.066-.078-.012-.024-.018-.054-.018-.09 0-.028.009-.056.027-.084.018-.028.039-.054.063-.078l.153-.174c.062-.072.125-.157.189-.255s.123-.206.177-.324c.054-.118.093-.243.117-.375-.012.004-.025.006-.039.006h-.039c-.208 0-.377-.069-.507-.207-.13-.138-.195-.315-.195-.531 0-.188.065-.348.195-.48s.303-.198.519-.198c.12 0 .226.022.318.066.092.044.169.105.231.183s.109.168.141.27c.032.102.048.213.048.333 0 .18-.025.367-.075.561-.05.194-.124.386-.222.576-.098.19-.217.375-.357.555-.14.18-.3.346-.48.498l-.18-.174zM33.34 4.84c0-.104.019-.202.057-.294.038-.092.09-.172.156-.24s.145-.122.237-.162c.092-.04.19-.06.294-.06.104 0 .202.02.294.06.092.04.172.094.24.162s.122.148.162.24c.04.092.06.19.06.294 0 .108-.02.207-.06.297-.04.09-.094.169-.162.237-.068.068-.148.121-.24.159-.092.038-.19.057-.294.057-.104 0-.202-.019-.294-.057-.092-.038-.171-.091-.237-.159-.066-.068-.118-.147-.156-.237-.038-.09-.057-.189-.057-.297zm4.056 1.386c0-.856-.109-1.688-.327-2.496-.218-.808-.537-1.576-.957-2.304-.032-.06-.052-.113-.06-.159s-.006-.086.006-.12.031-.064.057-.09c.026-.026.055-.049.087-.069l.474-.294c.3.464.555.922.765 1.374.21.452.38.905.51 1.359.13.454.225.913.285 1.377.06.464.09.938.09 1.422 0 .488-.03.963-.09 1.425-.06.462-.155.921-.285 1.377-.13.456-.3.91-.51 1.362-.21.452-.465.908-.765 1.368l-.474-.288c-.032-.02-.061-.043-.087-.069-.026-.026-.045-.056-.057-.09-.012-.034-.014-.075-.006-.123s.028-.102.06-.162c.42-.728.739-1.496.957-2.304.218-.808.327-1.64.327-2.496zm10.77.528H43.72V13h-.708V6.046h5.154v.708z"/>
</svg>
