<svg width="75" height="77" xmlns="http://www.w3.org/2000/svg"><g fill="none" fill-rule="evenodd"><path d="M.683 2.865c.878-1.91 11.475 2.751 31.792 13.984L9.5 52C2.744 21.153-.195 4.775.683 2.865z" fill="#303030"/><path d="M26.683.865c.878-.577 11.475 4.085 31.792 13.984L30.159 35.421c-3.195-22.46-4.354-33.98-3.476-34.556z" fill="#303030"/><path d="M40.5 77c8.096 0 9.54-3.788 15.425-8.457C63.891 62.223 75 53.458 75 42.5 75 23.446 59.554 8 40.5 8 21.446 8 6 23.446 6 42.5a34.346 34.346 0 004.166 16.448C16.008 69.7 27.402 77 40.5 77z" fill="#E88568"/></g></svg>