<svg width="88" height="69" xmlns="http://www.w3.org/2000/svg"><g fill="none" fill-rule="evenodd"><path d="M35.5 69C54.554 69 70 53.554 70 34.5 70 15.446 54.554 0 35.5 0 24.986 0 15.57 4.704 9.242 12.121 4.102 18.146-6 32.5 6 41c15.227 10.786 10.446 28 29.5 28z" fill="#91AAE1"/><g fill-rule="nonzero" fill="#303030"><path d="M21.913 34.543C25.877 38.038 30.37 42 39.058 42c8.69 0 13.182-3.962 17.146-7.457 3.748-3.306 6.985-6.161 13.737-6.161s9.99 2.855 13.738 6.16a2.568 2.568 0 003.69-.29c.941-1.128.815-2.827-.282-3.795C83.123 26.962 78.63 23 69.94 23c-8.69 0-13.182 3.962-17.145 7.457-3.749 3.306-6.986 6.161-13.738 6.161s-9.989-2.855-13.737-6.16a2.568 2.568 0 00-3.69.29c-.941 1.128-.815 2.827.282 3.795z"/><path d="M21.913 20.543C25.877 24.038 30.37 28 39.058 28c8.69 0 13.182-3.962 17.146-7.457 3.748-3.306 6.985-6.161 13.737-6.161s9.99 2.855 13.738 6.16a2.567 2.567 0 003.69-.29c.941-1.128.815-2.827-.282-3.795C83.123 12.962 78.63 9 69.94 9c-8.69 0-13.182 3.962-17.145 7.457-3.749 3.306-6.986 6.161-13.738 6.161s-9.989-2.855-13.737-6.16a2.568 2.568 0 00-3.69.29c-.941 1.128-.815 2.827.282 3.795zM87.087 44.457C83.123 40.962 78.63 37 69.94 37c-8.69 0-13.182 3.962-17.145 7.457-3.749 3.306-6.986 6.161-13.738 6.161s-9.989-2.855-13.737-6.16a2.568 2.568 0 00-3.69.29c-.941 1.128-.815 2.827.282 3.795C25.877 52.038 30.37 56 39.058 56c8.69 0 13.182-3.962 17.146-7.457 3.748-3.306 6.985-6.161 13.737-6.161s9.99 2.855 13.738 6.16a2.568 2.568 0 003.69-.29c.941-1.128.815-2.827-.282-3.795z"/></g></g></svg>